<svg xmlns="http://www.w3.org/2000/svg" version="1.1" xmlns:xlink="http://www.w3.org/1999/xlink" xmlns:svgjs="http://svgjs.dev/svgjs" width="1000" height="1000" viewBox="0 0 1000 1000"><rect width="1000" height="1000" fill="#ffffff"></rect><g transform="matrix(0.7,0,0,0.7,149.57575757575756,387.22330303605906)"><svg viewBox="0 0 396 128" data-background-color="#ffffff" preserveAspectRatio="xMidYMid meet" height="323" width="1000" xmlns="http://www.w3.org/2000/svg" xmlns:xlink="http://www.w3.org/1999/xlink"><g id="tight-bounds" transform="matrix(1,0,0,1,0.2400000000000091,-0.15472263872430858)"><svg viewBox="0 0 395.52 128.30924266420274" height="128.30924266420274" width="395.52"><g><svg viewBox="0 0 688.3514220564032 223.30564737784204" height="128.30924266420274" width="395.52"><g transform="matrix(1,0,0,1,292.8314220564032,38.026348868777134)"><svg viewBox="0 0 395.52 147.25294964028777" height="147.25294964028777" width="395.52"><g id="textblocktransform"><svg viewBox="0 0 395.52 147.25294964028777" height="147.25294964028777" width="395.52" id="textblock"><g><svg viewBox="0 0 395.52 147.25294964028777" height="147.25294964028777" width="395.52"><g transform="matrix(1,0,0,1,0,0)"><svg width="395.52" viewBox="2.0999999046325684 -34.900001525878906 111.20000457763672 41.400001525878906" height="147.25294964028777" data-palette-color="#0718c4"><path d="M26.35 6.5L20.8 0.55Q20.35 0.6 19.45 0.6L19.45 0.6Q11.2 0.6 6.65-3.83 2.1-8.25 2.1-17.15L2.1-17.15Q2.1-26.05 6.65-30.48 11.2-34.9 19.45-34.9L19.45-34.9Q27.75-34.9 32.3-30.48 36.85-26.05 36.85-17.15L36.85-17.15Q36.85-10.95 34.6-6.9 32.35-2.85 28.1-1L28.1-1 35.9 6.5 26.35 6.5ZM19.45-5.55Q24.35-5.55 26.88-8.38 29.4-11.2 29.4-16.4L29.4-16.4 29.4-17.9Q29.4-23.1 26.88-25.93 24.35-28.75 19.45-28.75L19.45-28.75Q14.55-28.75 12.05-25.93 9.55-23.1 9.55-17.9L9.55-17.9 9.55-16.4Q9.55-11.2 12.05-8.38 14.55-5.55 19.45-5.55L19.45-5.55ZM42.25 0L42.25-34.3 53.55-34.3 58.35-15.4Q58.9-13.25 59.95-7.65L59.95-7.65 60.2-7.65Q61.1-13.5 61.6-15.4L61.6-15.4 66.4-34.3 77.2-34.3 77.2 0 69.95 0 69.95-21.85Q69.95-23.3 70.25-27.35L70.25-27.35 70-27.35 68.95-23.3 63.05 0 56.15 0 50.25-23.3 49.2-27.35 48.95-27.35Q49.25-23.15 49.25-21.85L49.25-21.85 49.25 0 42.25 0ZM83.9 0L83.9-34.3 91.15-34.3 91.15-20.7 106.05-20.7 106.05-34.3 113.3-34.3 113.3 0 106.05 0 106.05-14.45 91.15-14.45 91.15 0 83.9 0Z" opacity="1" transform="matrix(1,0,0,1,0,0)" fill="#000000" class="wordmark-text-0" data-fill-palette-color="primary" id="text-0"></path></svg></g></svg></g></svg></g></svg></g><g><svg viewBox="0 0 223.30564737784204 223.30564737784204" height="223.30564737784204" width="223.30564737784204"><g><svg></svg></g><g id="icon-0"><svg viewBox="0 0 223.30564737784204 223.30564737784204" height="223.30564737784204" width="223.30564737784204"><g><path d="M0 111.653c0-61.664 49.989-111.653 111.653-111.653 61.664 0 111.653 49.989 111.653 111.653 0 61.664-49.989 111.653-111.653 111.653-61.664 0-111.653-49.989-111.653-111.653zM111.653 210.026c54.33 0 98.373-44.043 98.373-98.373 0-54.33-44.043-98.373-98.373-98.374-54.33 0-98.373 44.043-98.374 98.374 0 54.33 44.043 98.373 98.374 98.373z" data-fill-palette-color="accent" fill="#000000" stroke="transparent"></path></g><g transform="matrix(1,0,0,1,58.95345651768053,50.73427855720108)"><svg viewBox="0 0 105.39873434248098 121.83709026343988" height="121.83709026343988" width="105.39873434248098"><g><svg xmlns="http://www.w3.org/2000/svg" xmlns:xlink="http://www.w3.org/1999/xlink" version="1.1" x="0" y="0" viewBox="17.299999237060547 12.199999809265137 65.39999389648438 75.60000610351562" style="enable-background:new 0 0 100 100;" xml:space="preserve" height="121.83709026343988" width="105.39873434248098" class="icon-s-0" data-fill-palette-color="accent" id="s-0"><path d="M50 12.2L17.3 31.1v37.8L50 87.8l32.7-18.9V31.1L50 12.2zM32.1 37.4L50 16l17 21.4H32.1zM67.3 39.4L50 70.4l-18.2-31H67.3zM48.1 71l-27.7-4.5 9.8-25.9L48.1 71zM68.9 40.7l10.7 25.9-27.7 4.5L68.9 40.7zM69.2 37.1L52.6 16l27 15.6L69.2 37.1zM29.8 37.1l-9.4-5.5 26.8-15.5L29.8 37.1zM28.8 38.8l-9.5 25V33.3L28.8 38.8zM49 73.2v11.7L20.9 68.7 49 73.2zM51 73.2l28.1-4.5L51 84.9V73.2zM70.3 38.8l10.5-5.6v30.9L70.3 38.8z" fill="#000000" data-fill-palette-color="accent"></path></svg></g></svg></g></svg></g></svg></g></svg></g><defs></defs></svg><rect width="395.52" height="128.30924266420274" fill="none" stroke="none" visibility="hidden"></rect></g></svg></g></svg>